<svg width="30" height="31" viewBox="0 0 30 31" fill="none" xmlns="http://www.w3.org/2000/svg">
<path d="M15.3062 12.5234V18.4512H23.5437C23.182 20.3575 22.0965 21.9717 20.4685 23.057L25.436 26.9114C28.3303 24.2399 30.0001 20.3159 30.0001 15.6544C30.0001 14.5691 29.9027 13.5254 29.7218 12.5236L15.3062 12.5234Z" fill="#4285F4"/>
<path d="M6.72776 18.2197L5.60739 19.0774L1.6416 22.1664C4.16018 27.1618 9.32219 30.6127 15.3055 30.6127C19.4381 30.6127 22.9028 29.249 25.4354 26.9114L20.4678 23.057C19.1042 23.9753 17.3648 24.532 15.3055 24.532C11.3259 24.532 7.94469 21.8465 6.73402 18.2286L6.72776 18.2197Z" fill="#34A853"/>
<path d="M1.64183 8.44629C0.598274 10.5056 0 12.8294 0 15.3062C0 17.783 0.598274 20.1068 1.64183 22.1661C1.64183 22.1799 6.73473 18.2143 6.73473 18.2143C6.42861 17.2959 6.24767 16.322 6.24767 15.306C6.24767 14.2901 6.42861 13.3161 6.73473 12.3978L1.64183 8.44629Z" fill="#FBBC05"/>
<path d="M15.3058 6.09468C17.56 6.09468 19.5637 6.87389 21.1639 8.37671L25.5471 3.9936C22.8893 1.51681 19.4386 0 15.3058 0C9.3225 0 4.16017 3.43695 1.6416 8.4463L6.73435 12.3981C7.94487 8.78022 11.3262 6.09468 15.3058 6.09468Z" fill="#EA4335"/>
</svg>
